<?xml version="1.0" encoding="UTF-8"?>
<svg width="77px" height="76px" viewBox="0 0 77 76" version="1.1" xmlns="http://www.w3.org/2000/svg" xmlns:xlink="http://www.w3.org/1999/xlink">
    <!-- Generator: Sketch 41.2 (35397) - http://www.bohemiancoding.com/sketch -->
    <title>Google</title>
    <desc>Created with Sketch.</desc>
    <defs></defs>
    <g id="Page-1" stroke="none" stroke-width="1" fill="none" fill-rule="evenodd">
        <g id="flatIconSet-" transform="translate(-282.000000, 0.000000)">
            <g id="Google" transform="translate(282.000000, 0.000000)">
                <polygon id="Fill-11" fill="#FFFFFF" points="0.829 75.852 76.19 75.852 76.19 0.491 0.829 0.491"></polygon>
                <path d="M37.309,12.301 C37.782,12.593 38.31,13.02 38.899,13.581 C39.464,14.167 40.018,14.891 40.56,15.743 C41.079,16.548 41.539,17.498 41.941,18.599 C42.272,19.696 42.435,20.979 42.435,22.443 C42.393,25.128 41.799,27.276 40.656,28.888 C40.099,29.669 39.506,30.389 38.88,31.048 C38.185,31.705 37.449,32.378 36.668,33.062 C36.219,33.525 35.807,34.05 35.427,34.637 C34.98,35.247 34.756,35.953 34.756,36.759 C34.756,37.544 34.985,38.189 35.444,38.701 C35.833,39.19 36.212,39.618 36.58,39.983 L39.127,42.07 C40.709,43.367 42.097,44.79 43.289,46.353 C44.412,47.941 44.997,50.015 45.047,52.576 C45.047,56.214 43.439,59.435 40.227,62.246 C36.899,65.151 32.091,66.65 25.81,66.749 C20.552,66.7 16.627,65.579 14.033,63.389 C11.419,61.34 10.108,58.892 10.108,56.042 C10.108,54.654 10.532,53.104 11.388,51.398 C12.211,49.695 13.707,48.196 15.873,46.905 C18.302,45.519 20.856,44.59 23.533,44.127 C26.184,43.739 28.383,43.518 30.135,43.47 C29.593,42.757 29.111,41.997 28.687,41.187 C28.193,40.402 27.948,39.456 27.948,38.354 C27.948,37.691 28.041,37.136 28.228,36.696 C28.394,36.228 28.548,35.802 28.687,35.408 C27.836,35.504 27.03,35.554 26.277,35.554 C22.279,35.504 19.234,34.247 17.139,31.783 C14.943,29.485 13.846,26.813 13.846,23.764 C13.846,20.076 15.398,16.734 18.509,13.73 C20.642,11.975 22.859,10.83 25.159,10.289 C27.436,9.825 29.571,9.594 31.561,9.594 L46.572,9.594 L41.936,12.301 L37.309,12.301 Z M40.207,55.51 C40.207,53.604 39.586,51.946 38.345,50.531 C37.029,49.188 34.975,47.541 32.178,45.585 C31.698,45.536 31.137,45.513 30.492,45.513 C30.11,45.466 29.129,45.513 27.552,45.658 C26,45.879 24.409,46.232 22.783,46.721 C22.4,46.868 21.864,47.088 21.172,47.381 C20.478,47.698 19.774,48.15 19.055,48.736 C18.361,49.346 17.776,50.103 17.3,51.007 C16.748,51.96 16.476,53.108 16.476,54.45 C16.476,57.087 17.668,59.26 20.058,60.968 C22.331,62.677 25.435,63.556 29.38,63.606 C32.918,63.556 35.62,62.774 37.481,61.261 C39.299,59.77 40.207,57.855 40.207,55.51 Z M29.742,33.507 C31.719,33.433 33.365,32.722 34.682,31.376 C35.318,30.423 35.727,29.445 35.907,28.441 C36.016,27.437 36.072,26.596 36.072,25.909 C36.072,22.951 35.315,19.965 33.801,16.958 C33.089,15.517 32.155,14.341 30.997,13.437 C29.812,12.583 28.453,12.129 26.916,12.08 C24.881,12.129 23.191,12.949 21.841,14.539 C20.704,16.202 20.16,18.061 20.212,20.116 C20.212,22.831 21.003,25.653 22.593,28.59 C23.364,29.958 24.353,31.12 25.572,32.074 C26.788,33.03 28.178,33.507 29.742,33.507 L29.742,33.507 Z" id="Fill-12" fill="#000000"></path>
                <polyline id="Fill-13" fill="#000000" points="66.909 17.792 59.033 17.792 59.033 9.915 55.217 9.915 55.217 17.792 47.342 17.792 47.342 21.609 55.217 21.609 55.217 29.484 59.033 29.484 59.033 21.609 66.909 21.609 66.909 17.792"></polyline>
            </g>
        </g>
    </g>
</svg>