<?xml version="1.0" encoding="UTF-8"?>
<svg width="76px" height="77px" viewBox="0 0 76 77" version="1.1" xmlns="http://www.w3.org/2000/svg" xmlns:xlink="http://www.w3.org/1999/xlink">
    <!-- Generator: Sketch 41.2 (35397) - http://www.bohemiancoding.com/sketch -->
    <title>Linkedin</title>
    <desc>Created with Sketch.</desc>
    <defs></defs>
    <g id="Page-1" stroke="none" stroke-width="1" fill="none" fill-rule="evenodd">
        <g id="flatIconSet-" transform="translate(-188.000000, -187.000000)">
            <g id="Linkedin" transform="translate(188.000000, 187.000000)">
                <polygon id="Fill-53" fill="#1A71A2" points="0.4 76.104 75.761 76.104 75.761 0.744 0.4 0.744"></polygon>
                <path d="M13.295,63.994 L23.928,63.994 L23.928,29.836 L13.295,29.836 L13.295,63.994 Z M18.615,12.855 C22.015,12.855 24.771,15.615 24.771,19.009 C24.771,22.407 22.015,25.167 18.615,25.167 C15.204,25.167 12.453,22.407 12.453,19.009 C12.453,15.615 15.204,12.855 18.615,12.855 L18.615,12.855 Z" id="Fill-54" fill="#FFFFFF"></path>
                <path d="M30.594,29.836 L40.776,29.836 L40.776,34.504 L40.921,34.504 C42.337,31.817 45.805,28.987 50.973,28.987 C61.721,28.987 63.709,36.058 63.709,45.258 L63.709,63.994 L53.096,63.994 L53.096,47.387 C53.096,43.422 53.018,38.326 47.575,38.326 C42.046,38.326 41.204,42.641 41.204,47.094 L41.204,63.994 L30.594,63.994 L30.594,29.836" id="Fill-55" fill="#FFFFFF"></path>
            </g>
        </g>
    </g>
</svg>