<?xml version="1.0" encoding="UTF-8"?>
<svg width="281px" height="97px" viewBox="0 0 281 97" version="1.1" xmlns="http://www.w3.org/2000/svg" xmlns:xlink="http://www.w3.org/1999/xlink">
    <!-- Generator: Sketch 41.2 (35397) - http://www.bohemiancoding.com/sketch -->
    <title>Group</title>
    <desc>Created with Sketch.</desc>
    <defs></defs>
    <g id="Page-1" stroke="none" stroke-width="1" fill="none" fill-rule="evenodd">
        <g id="Group">
            <path d="M55.1386667,54.9388889 C55.1386667,58.8012786 54.3728595,62.047635 52.8412222,64.6780556 C51.3095849,67.3084761 49.2785312,69.4227698 46.748,71.021 C44.2174688,72.6192302 41.337368,73.7679409 38.1076111,74.4671667 C34.8778542,75.1663924 31.5649059,75.516 28.1686667,75.516 L2.84217094e-14,75.516 L2.84217094e-14,4.79466667 L28.1686667,4.79466667 C30.8989766,4.79466667 33.6958375,5.07768236 36.5593333,5.64372222 C39.4228291,6.20976209 42.0199143,7.17534503 44.3506667,8.5405 C46.6814191,9.90565497 48.579289,11.7535809 50.0443333,14.0843333 C51.5093777,16.4150857 52.2418889,19.3784265 52.2418889,22.9744444 C52.2418889,26.9034271 51.1764181,30.1497835 49.0454444,32.7136111 C46.9144708,35.2774387 44.1176099,37.1253647 40.6547778,38.2574444 C42.6525655,38.7901869 44.5337875,39.4061622 46.2985,40.3051667 C48.0632125,41.2041712 49.5948268,42.3528819 50.8933889,43.7513333 C52.1919509,45.1497848 53.2241258,46.781287 53.9899444,48.6458889 C54.7557631,50.5104908 55.1386667,52.6081365 55.1386667,54.9388889 Z M35.7602222,25.2718889 C35.7602222,22.8745436 34.8445832,21.1265055 33.0132778,20.0277222 C31.1819723,18.928939 28.4683513,18.3795556 24.8723333,18.3795556 L16.4816667,18.3795556 L16.4816667,32.9633333 L25.6714444,32.9633333 C28.8679049,32.9633333 31.3484541,32.314062 33.1131667,31.0155 C34.8778792,29.716938 35.7602222,27.8024201 35.7602222,25.2718889 Z M38.0576667,53.3406667 C38.0576667,50.4105779 36.9588999,48.3795242 34.7613333,47.2474444 C32.5637668,46.1153647 29.633722,45.5493333 25.9711111,45.5493333 L16.4816667,45.5493333 L16.4816667,61.7313333 L26.071,61.7313333 C27.4028585,61.7313333 28.784641,61.6147975 30.2163889,61.3817222 C31.6481368,61.148647 32.9466794,60.7324474 34.1120556,60.1331111 C35.2774318,59.5337748 36.2263667,58.6847277 36.9588889,57.5859444 C37.6914111,56.4871612 38.0576667,55.0720827 38.0576667,53.3406667 Z M118.268444,50.4438889 C118.268444,54.5060573 117.535933,58.1852613 116.070889,61.4816111 C114.605845,64.7779609 112.608087,67.5748218 110.077556,69.8722778 C107.547024,72.1697337 104.61698,73.9510677 101.287333,75.2163333 C97.9576871,76.4815989 94.395019,77.1142222 90.5992222,77.1142222 C86.8700184,77.1142222 83.3239983,76.4815989 79.9610556,75.2163333 C76.5981128,73.9510677 73.668068,72.1697337 71.1708333,69.8722778 C68.6735986,67.5748218 66.6924888,64.7779609 65.2274444,61.4816111 C63.7624001,58.1852613 63.0298889,54.5060573 63.0298889,50.4438889 C63.0298889,46.3817204 63.7624001,42.7191645 65.2274444,39.4561111 C66.6924888,36.1930578 68.6735986,33.4294928 71.1708333,31.1653333 C73.668068,28.9011739 76.5981128,27.1697838 79.9610556,25.9711111 C83.3239983,24.7724385 86.8700184,24.1731111 90.5992222,24.1731111 C94.395019,24.1731111 97.9576871,24.7724385 101.287333,25.9711111 C104.61698,27.1697838 107.547024,28.9011739 110.077556,31.1653333 C112.608087,33.4294928 114.605845,36.1930578 116.070889,39.4561111 C117.535933,42.7191645 118.268444,46.3817204 118.268444,50.4438889 Z M102.486,50.4438889 C102.486,48.8456587 102.219632,47.2807484 101.686889,45.7491111 C101.154145,44.2174738 100.388338,42.8689873 99.3894444,41.7036111 C98.3905506,40.5382349 97.1585999,39.5893 95.6935556,38.8567778 C94.2285112,38.1242556 92.5304171,37.758 90.5992222,37.758 C88.6680274,37.758 86.9699333,38.1242556 85.5048889,38.8567778 C84.0398445,39.5893 82.8245419,40.5382349 81.8589444,41.7036111 C80.893347,42.8689873 80.1608358,44.2174738 79.6613889,45.7491111 C79.1619419,47.2807484 78.9122222,48.8456587 78.9122222,50.4438889 C78.9122222,52.0421191 79.1619419,53.6070294 79.6613889,55.1386667 C80.1608358,56.670304 80.909995,58.0520864 81.9088889,59.2840556 C82.9077828,60.5160247 84.1397334,61.4982556 85.6047778,62.2307778 C87.0698221,62.9633 88.7679163,63.3295556 90.6991111,63.3295556 C92.630306,63.3295556 94.3284001,62.9633 95.7934444,62.2307778 C97.2584888,61.4982556 98.4904395,60.5160247 99.4893333,59.2840556 C100.488227,58.0520864 101.237386,56.670304 101.736833,55.1386667 C102.23628,53.6070294 102.486,52.0421191 102.486,50.4438889 Z M146.437111,9.889 C146.437111,11.1542656 146.187391,12.3362723 145.687944,13.4350556 C145.188498,14.5338388 144.522578,15.4827738 143.690167,16.2818889 C142.857755,17.081004 141.858876,17.7136273 140.6935,18.1797778 C139.528124,18.6459283 138.312821,18.879 137.047556,18.879 C134.383839,18.879 132.153009,17.996657 130.355,16.2319444 C128.556991,14.4672319 127.658,12.3529382 127.658,9.889 C127.658,8.69032734 127.891072,7.5416166 128.357222,6.44283333 C128.823373,5.34405006 129.489292,4.39511511 130.355,3.596 C131.220708,2.79688489 132.219587,2.14761361 133.351667,1.64816667 C134.483746,1.14871973 135.715697,0.899 137.047556,0.899 C138.312821,0.899 139.528124,1.13207174 140.6935,1.59822222 C141.858876,2.0643727 142.857755,2.696996 143.690167,3.49611111 C144.522578,4.29522622 145.188498,5.24416117 145.687944,6.34294444 C146.187391,7.44172772 146.437111,8.62373441 146.437111,9.889 Z M128.856667,75.516 L128.856667,25.7713333 L145.238444,25.7713333 L145.238444,75.516 L128.856667,75.516 Z M158.423778,75.516 L158.423778,0 L175.005333,0 L175.005333,75.516 L158.423778,75.516 Z M222.252778,44.95 C222.252778,42.3528759 221.437027,40.1220464 219.8055,38.2574444 C218.173973,36.3928425 215.72672,35.4605556 212.463667,35.4605556 C210.865436,35.4605556 209.400414,35.7102753 208.068556,36.2097222 C206.736697,36.7091692 205.571338,37.3917364 204.572444,38.2574444 C203.573551,39.1231525 202.774447,40.1386794 202.175111,41.3040556 C201.575775,42.4694318 201.242815,43.6847344 201.176222,44.95 L222.252778,44.95 Z M237.336,51.243 L237.336,53.2407778 C237.336,53.906707 237.302704,54.5393303 237.236111,55.1386667 L201.176222,55.1386667 C201.309408,56.5371181 201.725608,57.8023647 202.424833,58.9344444 C203.124059,60.0665242 204.02305,61.0487551 205.121833,61.8811667 C206.220617,62.7135782 207.452567,63.3628495 208.817722,63.829 C210.182877,64.2951505 211.597956,64.5282222 213.063,64.5282222 C215.660124,64.5282222 217.857658,64.0454308 219.655667,63.0798333 C221.453676,62.1142359 222.918698,60.8656373 224.050778,59.334 L235.438111,66.526 C233.107359,69.9222392 230.027482,72.5359723 226.198389,74.3672778 C222.369296,76.1985832 217.924285,77.1142222 212.863222,77.1142222 C209.134018,77.1142222 205.604646,76.5315429 202.275,75.3661667 C198.945354,74.2007905 196.031957,72.5026963 193.534722,70.2718333 C191.037488,68.0409703 189.073026,65.2940534 187.641278,62.031 C186.20953,58.7679466 185.493667,55.0387988 185.493667,50.8434444 C185.493667,46.781276 186.192882,43.102072 187.591333,39.8057222 C188.989785,36.5093724 190.887655,33.7125115 193.285,31.4150556 C195.682345,29.1175996 198.512502,27.3362656 201.775556,26.071 C205.038609,24.8057344 208.567981,24.1731111 212.363778,24.1731111 C216.026389,24.1731111 219.389281,24.7890864 222.452556,26.0210556 C225.51583,27.2530247 228.146211,29.0343587 230.343778,31.3651111 C232.541344,33.6958635 234.256086,36.5260204 235.488056,39.8556667 C236.720025,43.1853129 237.336,46.9810528 237.336,51.243 Z M279.788778,39.1564444 C279.056256,38.9566657 278.340392,38.8234818 277.641167,38.7568889 C276.941941,38.690296 276.259374,38.657 275.593444,38.657 C273.395878,38.657 271.547952,39.0565516 270.049611,39.8556667 C268.55127,40.6547818 267.352616,41.6203647 266.453611,42.7524444 C265.554607,43.8845242 264.905335,45.1164748 264.505778,46.4483333 C264.10622,47.7801918 263.906444,48.9455506 263.906444,49.9444444 L263.906444,75.516 L247.524667,75.516 L247.524667,25.7713333 L263.307111,25.7713333 L263.307111,32.9633333 L263.506889,32.9633333 C264.772154,30.4328022 266.570136,28.3684524 268.900889,26.7702222 C271.231641,25.171992 273.928614,24.3728889 276.991889,24.3728889 C277.657818,24.3728889 278.307089,24.4061849 278.939722,24.4727778 C279.572355,24.5393707 280.088442,24.6392586 280.488,24.7724444 L279.788778,39.1564444 Z" id="Boiler" fill="#FFFFFF"></path>
            <path d="M10,89.704 C10,90.3226698 9.87733456,90.8426646 9.632,91.264 C9.38666544,91.6853354 9.06133536,92.0239987 8.656,92.28 C8.25066464,92.5360013 7.78933592,92.7199994 7.272,92.832 C6.75466408,92.9440006 6.22400272,93 5.68,93 L1.168,93 L1.168,81.672 L5.68,81.672 C6.11733552,81.672 6.56533104,81.7173329 7.024,81.808 C7.48266896,81.8986671 7.8986648,82.0533322 8.272,82.272 C8.6453352,82.4906678 8.94933216,82.7866648 9.184,83.16 C9.41866784,83.5333352 9.536,84.0079971 9.536,84.584 C9.536,85.2133365 9.36533504,85.7333313 9.024,86.144 C8.68266496,86.5546687 8.23466944,86.8506658 7.68,87.032 L7.68,87.064 C8.0000016,87.1173336 8.30133192,87.2159993 8.584,87.36 C8.86666808,87.5040007 9.11199896,87.6879989 9.32,87.912 C9.52800104,88.1360011 9.69333272,88.3973318 9.816,88.696 C9.93866728,88.9946682 10,89.3306648 10,89.704 Z M6.896,84.952 C6.896,84.5679981 6.7493348,84.2880009 6.456,84.112 C6.1626652,83.9359991 5.72800288,83.848 5.152,83.848 L3.808,83.848 L3.808,86.184 L5.28,86.184 C5.79200256,86.184 6.18933192,86.080001 6.472,85.872 C6.75466808,85.663999 6.896,85.3573354 6.896,84.952 Z M7.264,89.448 C7.264,88.9786643 7.08800176,88.6533342 6.736,88.472 C6.38399824,88.2906658 5.9146696,88.2 5.328,88.2 L3.808,88.2 L3.808,90.792 L5.344,90.792 C5.5573344,90.792 5.77866552,90.7733335 6.008,90.736 C6.23733448,90.6986665 6.4453324,90.6320005 6.632,90.536 C6.8186676,90.4399995 6.97066608,90.3040009 7.088,90.128 C7.20533392,89.9519991 7.264,89.7253347 7.264,89.448 Z M11.696,93 L11.696,80.904 L14.352,80.904 L14.352,93 L11.696,93 Z M21.136,89.528 L20.8,89.528 C20.5119986,89.528 20.2213348,89.5413332 19.928,89.568 C19.6346652,89.5946668 19.3733345,89.645333 19.144,89.72 C18.9146655,89.794667 18.7253341,89.9039993 18.576,90.048 C18.4266659,90.1920007 18.352,90.3813322 18.352,90.616 C18.352,90.7653341 18.3866663,90.8933328 18.456,91 C18.5253337,91.1066672 18.6133328,91.1919997 18.72,91.256 C18.8266672,91.3200003 18.9493326,91.3653332 19.088,91.392 C19.2266674,91.4186668 19.3599994,91.432 19.488,91.432 C20.021336,91.432 20.4293319,91.2853348 20.712,90.992 C20.9946681,90.6986652 21.136,90.3013358 21.136,89.8 L21.136,89.528 Z M16.32,86.12 C16.7893357,85.6719978 17.3359969,85.3360011 17.96,85.112 C18.5840031,84.8879989 19.2213301,84.776 19.872,84.776 C20.5440034,84.776 21.1119977,84.8586658 21.576,85.024 C22.0400023,85.1893342 22.4159986,85.4453316 22.704,85.792 C22.9920014,86.1386684 23.202666,86.5759974 23.336,87.104 C23.469334,87.6320026 23.536,88.258663 23.536,88.984 L23.536,93 L21.136,93 L21.136,92.152 L21.088,92.152 C20.8853323,92.4826683 20.5786687,92.7386658 20.168,92.92 C19.7573313,93.1013342 19.3120024,93.192 18.832,93.192 C18.5119984,93.192 18.181335,93.1493338 17.84,93.064 C17.498665,92.9786662 17.1866681,92.840001 16.904,92.648 C16.6213319,92.455999 16.3893342,92.2000016 16.208,91.88 C16.0266658,91.5599984 15.936,91.1653357 15.936,90.696 C15.936,90.1199971 16.0933318,89.6560018 16.408,89.304 C16.7226682,88.9519982 17.1279975,88.680001 17.624,88.488 C18.1200025,88.295999 18.671997,88.1680003 19.28,88.104 C19.888003,88.0399997 20.4799971,88.008 21.056,88.008 L21.056,87.88 C21.056,87.4853314 20.9173347,87.1946676 20.64,87.008 C20.3626653,86.8213324 20.0213354,86.728 19.616,86.728 C19.2426648,86.728 18.8826684,86.8079992 18.536,86.968 C18.1893316,87.1280008 17.8933346,87.3199989 17.648,87.544 L16.32,86.12 Z M30.72,93 L30.72,88.648 C30.72,88.4239989 30.7013335,88.2106677 30.664,88.008 C30.6266665,87.8053323 30.5653338,87.6266674 30.48,87.472 C30.3946662,87.3173326 30.2746674,87.1946671 30.12,87.104 C29.9653326,87.0133329 29.7706678,86.968 29.536,86.968 C29.3013322,86.968 29.0960009,87.0133329 28.92,87.104 C28.7439991,87.1946671 28.5973339,87.3199992 28.48,87.48 C28.3626661,87.6400008 28.274667,87.823999 28.216,88.032 C28.157333,88.240001 28.128,88.4559989 28.128,88.68 L28.128,93 L25.488,93 L25.488,85.032 L28.032,85.032 L28.032,86.136 L28.064,86.136 C28.1600005,85.9653325 28.2853326,85.7973342 28.44,85.632 C28.5946674,85.4666658 28.775999,85.3253339 28.984,85.208 C29.192001,85.0906661 29.4186654,84.994667 29.664,84.92 C29.9093346,84.845333 30.1706653,84.808 30.448,84.808 C30.981336,84.808 31.4346648,84.903999 31.808,85.096 C32.1813352,85.288001 32.4826655,85.5359985 32.712,85.84 C32.9413345,86.1440015 33.1066662,86.4933314 33.208,86.888 C33.3093338,87.2826686 33.36,87.6773314 33.36,88.072 L33.36,93 L30.72,93 Z M43.904,93 L40.656,93 L38.048,89.176 L38,89.176 L38,93 L35.36,93 L35.36,80.904 L38,80.904 L38,88.264 L38.048,88.264 L40.592,85.032 L43.776,85.032 L40.704,88.632 L43.904,93 Z M55.072,93 L52.624,88.504 L51.696,88.504 L51.696,93 L49.008,93 L49.008,81.672 L53.328,81.672 C53.8720027,81.672 54.4026641,81.7279994 54.92,81.84 C55.4373359,81.9520006 55.9013313,82.141332 56.312,82.408 C56.7226687,82.674668 57.0506654,83.0266645 57.296,83.464 C57.5413346,83.9013355 57.664,84.4453301 57.664,85.096 C57.664,85.8640038 57.4560021,86.5093307 57.04,87.032 C56.6239979,87.5546693 56.0480037,87.9279989 55.312,88.152 L58.272,93 L55.072,93 Z M54.96,85.144 C54.96,84.877332 54.9040006,84.6613342 54.792,84.496 C54.6799994,84.3306658 54.5360009,84.2026671 54.36,84.112 C54.1839991,84.0213329 53.9866678,83.9600002 53.768,83.928 C53.5493322,83.8959998 53.3386677,83.88 53.136,83.88 L51.68,83.88 L51.68,86.52 L52.976,86.52 C53.2000011,86.52 53.4293322,86.5013335 53.664,86.464 C53.8986678,86.4266665 54.111999,86.3600005 54.304,86.264 C54.496001,86.1679995 54.6533327,86.0293342 54.776,85.848 C54.8986673,85.6666658 54.96,85.4320014 54.96,85.144 Z M64.768,88.104 C64.768,87.6879979 64.6373346,87.3306682 64.376,87.032 C64.1146654,86.7333318 63.7226693,86.584 63.2,86.584 C62.9439987,86.584 62.7093344,86.6239996 62.496,86.704 C62.2826656,86.7840004 62.0960008,86.8933326 61.936,87.032 C61.7759992,87.1706674 61.6480005,87.3333324 61.552,87.52 C61.4559995,87.7066676 61.4026667,87.9013323 61.392,88.104 L64.768,88.104 Z M67.184,89.112 L67.184,89.432 C67.184,89.5386672 67.1786667,89.6399995 67.168,89.736 L61.392,89.736 C61.4133334,89.9600011 61.4799994,90.1626658 61.592,90.344 C61.7040006,90.5253342 61.8479991,90.682666 62.024,90.816 C62.2000009,90.949334 62.3973322,91.053333 62.616,91.128 C62.8346678,91.202667 63.0613322,91.24 63.296,91.24 C63.7120021,91.24 64.0639986,91.1626674 64.352,91.008 C64.6400014,90.8533326 64.8746658,90.6533346 65.056,90.408 L66.88,91.56 C66.5066648,92.1040027 66.0133364,92.5226652 65.4,92.816 C64.7866636,93.1093348 64.0746707,93.256 63.264,93.256 C62.6666637,93.256 62.101336,93.1626676 61.568,92.976 C61.034664,92.7893324 60.568002,92.5173351 60.168,92.16 C59.767998,91.8026649 59.4533345,91.3626693 59.224,90.84 C58.9946655,90.3173307 58.88,89.7200034 58.88,89.048 C58.88,88.3973301 58.9919989,87.8080026 59.216,87.28 C59.4400011,86.7519974 59.7439981,86.3040018 60.128,85.936 C60.5120019,85.5679982 60.9653307,85.2826677 61.488,85.08 C62.0106693,84.8773323 62.575997,84.776 63.184,84.776 C63.7706696,84.776 64.3093309,84.8746657 64.8,85.072 C65.2906691,85.2693343 65.7119982,85.5546648 66.064,85.928 C66.4160018,86.3013352 66.6906657,86.754664 66.888,87.288 C67.0853343,87.821336 67.184,88.4293299 67.184,89.112 Z M73.504,87.384 C73.2906656,87.1813323 73.0400014,87.0106674 72.752,86.872 C72.4639986,86.7333326 72.1600016,86.664 71.84,86.664 C71.5946654,86.664 71.368001,86.7119995 71.16,86.808 C70.951999,86.9040005 70.848,87.0693322 70.848,87.304 C70.848,87.5280011 70.9626655,87.6879995 71.192,87.784 C71.4213345,87.8800005 71.7919974,87.9866661 72.304,88.104 C72.6026682,88.1680003 72.9039985,88.2586661 73.208,88.376 C73.5120015,88.4933339 73.7866654,88.647999 74.032,88.84 C74.2773346,89.032001 74.4746659,89.2666653 74.624,89.544 C74.7733341,89.8213347 74.848,90.1519981 74.848,90.536 C74.848,91.0373358 74.7466677,91.4613316 74.544,91.808 C74.3413323,92.1546684 74.077335,92.4346656 73.752,92.648 C73.426665,92.8613344 73.0613354,93.0159995 72.656,93.112 C72.2506646,93.2080005 71.8453354,93.256 71.44,93.256 C70.7893301,93.256 70.1520031,93.152001 69.528,92.944 C68.9039969,92.735999 68.3840021,92.4293354 67.968,92.024 L69.44,90.472 C69.6746678,90.7280013 69.962665,90.9413325 70.304,91.112 C70.645335,91.2826675 71.0079981,91.368 71.392,91.368 C71.6053344,91.368 71.815999,91.3173338 72.024,91.216 C72.232001,91.1146662 72.336,90.9360013 72.336,90.68 C72.336,90.4346654 72.2080013,90.2533339 71.952,90.136 C71.6959987,90.0186661 71.2960027,89.8960006 70.752,89.768 C70.4746653,89.7039997 70.1973347,89.6186672 69.92,89.512 C69.6426653,89.4053328 69.3946678,89.2613342 69.176,89.08 C68.9573322,88.8986658 68.7786674,88.674668 68.64,88.408 C68.5013326,88.141332 68.432,87.8213352 68.432,87.448 C68.432,86.9679976 68.5333323,86.5600017 68.736,86.224 C68.9386677,85.8879983 69.1999984,85.6133344 69.52,85.4 C69.8400016,85.1866656 70.1946647,85.0293338 70.584,84.928 C70.9733353,84.8266662 71.3599981,84.776 71.744,84.776 C72.3413363,84.776 72.9253305,84.8693324 73.496,85.056 C74.0666695,85.2426676 74.5493314,85.5226648 74.944,85.896 L73.504,87.384 Z M85.232,88.984 C85.232,89.5386694 85.1466675,90.0719974 84.976,90.584 C84.8053325,91.0960026 84.557335,91.5466647 84.232,91.936 C83.906665,92.3253353 83.5093357,92.6373322 83.04,92.872 C82.5706643,93.1066678 82.0373363,93.224 81.44,93.224 C80.9493309,93.224 80.4853355,93.1253343 80.048,92.928 C79.6106645,92.7306657 79.2693346,92.461335 79.024,92.12 L78.992,92.12 L78.992,96.84 L76.368,96.84 L76.368,85.032 L78.864,85.032 L78.864,86.008 L78.912,86.008 C79.1573346,85.6879984 79.4959978,85.4080012 79.928,85.168 C80.3600022,84.9279988 80.8693304,84.808 81.456,84.808 C82.0320029,84.808 82.5546643,84.9199989 83.024,85.144 C83.4933357,85.3680011 83.890665,85.6719981 84.216,86.056 C84.541335,86.4400019 84.7919991,86.8853308 84.968,87.392 C85.1440009,87.8986692 85.232,88.4293306 85.232,88.984 Z M82.688,88.984 C82.688,88.7279987 82.6480004,88.4773346 82.568,88.232 C82.4879996,87.9866654 82.3706674,87.7706676 82.216,87.584 C82.0613326,87.3973324 81.8666678,87.2453339 81.632,87.128 C81.3973322,87.0106661 81.1253349,86.952 80.816,86.952 C80.5173318,86.952 80.2506678,87.0106661 80.016,87.128 C79.7813322,87.2453339 79.5813342,87.399999 79.416,87.592 C79.2506658,87.784001 79.1226671,88.0026654 79.032,88.248 C78.9413329,88.4933346 78.896,88.7439987 78.896,89 C78.896,89.2560013 78.9413329,89.5066654 79.032,89.752 C79.1226671,89.9973346 79.2506658,90.215999 79.416,90.408 C79.5813342,90.600001 79.7813322,90.7546661 80.016,90.872 C80.2506678,90.9893339 80.5173318,91.048 80.816,91.048 C81.1253349,91.048 81.3973322,90.9893339 81.632,90.872 C81.8666678,90.7546661 82.0613326,90.600001 82.216,90.408 C82.3706674,90.215999 82.4879996,89.9946679 82.568,89.744 C82.6480004,89.4933321 82.688,89.2400013 82.688,88.984 Z M95.328,88.984 C95.328,89.6346699 95.2106678,90.2239974 94.976,90.752 C94.7413322,91.2800026 94.4213354,91.7279982 94.016,92.096 C93.6106646,92.4640018 93.141336,92.7493323 92.608,92.952 C92.074664,93.1546677 91.504003,93.256 90.896,93.256 C90.2986637,93.256 89.7306694,93.1546677 89.192,92.952 C88.6533306,92.7493323 88.184002,92.4640018 87.784,92.096 C87.383998,91.7279982 87.0666678,91.2800026 86.832,90.752 C86.5973322,90.2239974 86.48,89.6346699 86.48,88.984 C86.48,88.3333301 86.5973322,87.7466693 86.832,87.224 C87.0666678,86.7013307 87.383998,86.2586685 87.784,85.896 C88.184002,85.5333315 88.6533306,85.256001 89.192,85.064 C89.7306694,84.871999 90.2986637,84.776 90.896,84.776 C91.504003,84.776 92.074664,84.871999 92.608,85.064 C93.141336,85.256001 93.6106646,85.5333315 94.016,85.896 C94.4213354,86.2586685 94.7413322,86.7013307 94.976,87.224 C95.2106678,87.7466693 95.328,88.3333301 95.328,88.984 Z M92.8,88.984 C92.8,88.7279987 92.7573338,88.4773346 92.672,88.232 C92.5866662,87.9866654 92.4640008,87.7706676 92.304,87.584 C92.1439992,87.3973324 91.9466678,87.2453339 91.712,87.128 C91.4773322,87.0106661 91.2053349,86.952 90.896,86.952 C90.5866651,86.952 90.3146678,87.0106661 90.08,87.128 C89.8453322,87.2453339 89.6506674,87.3973324 89.496,87.584 C89.3413326,87.7706676 89.2240004,87.9866654 89.144,88.232 C89.0639996,88.4773346 89.024,88.7279987 89.024,88.984 C89.024,89.2400013 89.0639996,89.4906654 89.144,89.736 C89.2240004,89.9813346 89.3439992,90.2026657 89.504,90.4 C89.6640008,90.5973343 89.8613322,90.7546661 90.096,90.872 C90.3306678,90.9893339 90.6026651,91.048 90.912,91.048 C91.2213349,91.048 91.4933322,90.9893339 91.728,90.872 C91.9626678,90.7546661 92.1599992,90.5973343 92.32,90.4 C92.4800008,90.2026657 92.5999996,89.9813346 92.68,89.736 C92.7600004,89.4906654 92.8,89.2400013 92.8,88.984 Z M102.224,93 L102.224,88.648 C102.224,88.4239989 102.205334,88.2106677 102.168,88.008 C102.130666,87.8053323 102.069334,87.6266674 101.984,87.472 C101.898666,87.3173326 101.778667,87.1946671 101.624,87.104 C101.469333,87.0133329 101.274668,86.968 101.04,86.968 C100.805332,86.968 100.600001,87.0133329 100.424,87.104 C100.247999,87.1946671 100.101334,87.3199992 99.984,87.48 C99.8666661,87.6400008 99.778667,87.823999 99.72,88.032 C99.661333,88.240001 99.632,88.4559989 99.632,88.68 L99.632,93 L96.992,93 L96.992,85.032 L99.536,85.032 L99.536,86.136 L99.568,86.136 C99.6640005,85.9653325 99.7893326,85.7973342 99.944,85.632 C100.098667,85.4666658 100.279999,85.3253339 100.488,85.208 C100.696001,85.0906661 100.922665,84.994667 101.168,84.92 C101.413335,84.845333 101.674665,84.808 101.952,84.808 C102.485336,84.808 102.938665,84.903999 103.312,85.096 C103.685335,85.288001 103.986666,85.5359985 104.216,85.84 C104.445334,86.1440015 104.610666,86.4933314 104.712,86.888 C104.813334,87.2826686 104.864,87.6773314 104.864,88.072 L104.864,93 L102.224,93 Z M111.536,87.384 C111.322666,87.1813323 111.072001,87.0106674 110.784,86.872 C110.495999,86.7333326 110.192002,86.664 109.872,86.664 C109.626665,86.664 109.400001,86.7119995 109.192,86.808 C108.983999,86.9040005 108.88,87.0693322 108.88,87.304 C108.88,87.5280011 108.994666,87.6879995 109.224,87.784 C109.453334,87.8800005 109.823997,87.9866661 110.336,88.104 C110.634668,88.1680003 110.935998,88.2586661 111.24,88.376 C111.544002,88.4933339 111.818665,88.647999 112.064,88.84 C112.309335,89.032001 112.506666,89.2666653 112.656,89.544 C112.805334,89.8213347 112.88,90.1519981 112.88,90.536 C112.88,91.0373358 112.778668,91.4613316 112.576,91.808 C112.373332,92.1546684 112.109335,92.4346656 111.784,92.648 C111.458665,92.8613344 111.093335,93.0159995 110.688,93.112 C110.282665,93.2080005 109.877335,93.256 109.472,93.256 C108.82133,93.256 108.184003,93.152001 107.56,92.944 C106.935997,92.735999 106.416002,92.4293354 106,92.024 L107.472,90.472 C107.706668,90.7280013 107.994665,90.9413325 108.336,91.112 C108.677335,91.2826675 109.039998,91.368 109.424,91.368 C109.637334,91.368 109.847999,91.3173338 110.056,91.216 C110.264001,91.1146662 110.368,90.9360013 110.368,90.68 C110.368,90.4346654 110.240001,90.2533339 109.984,90.136 C109.727999,90.0186661 109.328003,89.8960006 108.784,89.768 C108.506665,89.7039997 108.229335,89.6186672 107.952,89.512 C107.674665,89.4053328 107.426668,89.2613342 107.208,89.08 C106.989332,88.8986658 106.810667,88.674668 106.672,88.408 C106.533333,88.141332 106.464,87.8213352 106.464,87.448 C106.464,86.9679976 106.565332,86.5600017 106.768,86.224 C106.970668,85.8879983 107.231998,85.6133344 107.552,85.4 C107.872002,85.1866656 108.226665,85.0293338 108.616,84.928 C109.005335,84.8266662 109.391998,84.776 109.776,84.776 C110.373336,84.776 110.95733,84.8693324 111.528,85.056 C112.09867,85.2426676 112.581331,85.5226648 112.976,85.896 L111.536,87.384 Z M117.248,82.488 C117.248,82.6906677 117.208,82.8799991 117.128,83.056 C117.048,83.2320009 116.941334,83.3839994 116.808,83.512 C116.674666,83.6400006 116.514668,83.741333 116.328,83.816 C116.141332,83.890667 115.946668,83.928 115.744,83.928 C115.317331,83.928 114.960001,83.7866681 114.672,83.504 C114.383999,83.2213319 114.24,82.8826686 114.24,82.488 C114.24,82.295999 114.277333,82.1120009 114.352,81.936 C114.426667,81.7599991 114.533333,81.6080006 114.672,81.48 C114.810667,81.3519994 114.970666,81.2480004 115.152,81.168 C115.333334,81.0879996 115.530666,81.048 115.744,81.048 C115.946668,81.048 116.141332,81.085333 116.328,81.16 C116.514668,81.234667 116.674666,81.3359994 116.808,81.464 C116.941334,81.5920006 117.048,81.7439991 117.128,81.92 C117.208,82.0960009 117.248,82.2853323 117.248,82.488 Z M114.432,93 L114.432,85.032 L117.056,85.032 L117.056,93 L114.432,93 Z M124.064,93 L121.232,93 L118.096,85.032 L120.992,85.032 L122.672,90.2 L122.72,90.2 L124.4,85.032 L127.2,85.032 L124.064,93 Z M133.696,88.104 C133.696,87.6879979 133.565335,87.3306682 133.304,87.032 C133.042665,86.7333318 132.650669,86.584 132.128,86.584 C131.871999,86.584 131.637334,86.6239996 131.424,86.704 C131.210666,86.7840004 131.024001,86.8933326 130.864,87.032 C130.703999,87.1706674 130.576,87.3333324 130.48,87.52 C130.384,87.7066676 130.330667,87.9013323 130.32,88.104 L133.696,88.104 Z M136.112,89.112 L136.112,89.432 C136.112,89.5386672 136.106667,89.6399995 136.096,89.736 L130.32,89.736 C130.341333,89.9600011 130.407999,90.1626658 130.52,90.344 C130.632001,90.5253342 130.775999,90.682666 130.952,90.816 C131.128001,90.949334 131.325332,91.053333 131.544,91.128 C131.762668,91.202667 131.989332,91.24 132.224,91.24 C132.640002,91.24 132.991999,91.1626674 133.28,91.008 C133.568001,90.8533326 133.802666,90.6533346 133.984,90.408 L135.808,91.56 C135.434665,92.1040027 134.941336,92.5226652 134.328,92.816 C133.714664,93.1093348 133.002671,93.256 132.192,93.256 C131.594664,93.256 131.029336,93.1626676 130.496,92.976 C129.962664,92.7893324 129.496002,92.5173351 129.096,92.16 C128.695998,91.8026649 128.381334,91.3626693 128.152,90.84 C127.922666,90.3173307 127.808,89.7200034 127.808,89.048 C127.808,88.3973301 127.919999,87.8080026 128.144,87.28 C128.368001,86.7519974 128.671998,86.3040018 129.056,85.936 C129.440002,85.5679982 129.893331,85.2826677 130.416,85.08 C130.938669,84.8773323 131.503997,84.776 132.112,84.776 C132.69867,84.776 133.237331,84.8746657 133.728,85.072 C134.218669,85.2693343 134.639998,85.5546648 134.992,85.928 C135.344002,86.3013352 135.618666,86.754664 135.816,87.288 C136.013334,87.821336 136.112,88.4293299 136.112,89.112 Z M153.696,93 L150.992,93 L148.752,85.336 L148.704,85.336 L146.464,93 L143.744,93 L140.528,81.672 L143.472,81.672 L145.264,89.208 L145.312,89.208 L147.328,81.672 L150.176,81.672 L152.208,89.208 L152.256,89.208 L154.08,81.672 L156.928,81.672 L153.696,93 Z M165.824,88.984 C165.824,89.6346699 165.706668,90.2239974 165.472,90.752 C165.237332,91.2800026 164.917335,91.7279982 164.512,92.096 C164.106665,92.4640018 163.637336,92.7493323 163.104,92.952 C162.570664,93.1546677 162.000003,93.256 161.392,93.256 C160.794664,93.256 160.226669,93.1546677 159.688,92.952 C159.149331,92.7493323 158.680002,92.4640018 158.28,92.096 C157.879998,91.7279982 157.562668,91.2800026 157.328,90.752 C157.093332,90.2239974 156.976,89.6346699 156.976,88.984 C156.976,88.3333301 157.093332,87.7466693 157.328,87.224 C157.562668,86.7013307 157.879998,86.2586685 158.28,85.896 C158.680002,85.5333315 159.149331,85.256001 159.688,85.064 C160.226669,84.871999 160.794664,84.776 161.392,84.776 C162.000003,84.776 162.570664,84.871999 163.104,85.064 C163.637336,85.256001 164.106665,85.5333315 164.512,85.896 C164.917335,86.2586685 165.237332,86.7013307 165.472,87.224 C165.706668,87.7466693 165.824,88.3333301 165.824,88.984 Z M163.296,88.984 C163.296,88.7279987 163.253334,88.4773346 163.168,88.232 C163.082666,87.9866654 162.960001,87.7706676 162.8,87.584 C162.639999,87.3973324 162.442668,87.2453339 162.208,87.128 C161.973332,87.0106661 161.701335,86.952 161.392,86.952 C161.082665,86.952 160.810668,87.0106661 160.576,87.128 C160.341332,87.2453339 160.146667,87.3973324 159.992,87.584 C159.837333,87.7706676 159.72,87.9866654 159.64,88.232 C159.56,88.4773346 159.52,88.7279987 159.52,88.984 C159.52,89.2400013 159.56,89.4906654 159.64,89.736 C159.72,89.9813346 159.839999,90.2026657 160,90.4 C160.160001,90.5973343 160.357332,90.7546661 160.592,90.872 C160.826668,90.9893339 161.098665,91.048 161.408,91.048 C161.717335,91.048 161.989332,90.9893339 162.224,90.872 C162.458668,90.7546661 162.655999,90.5973343 162.816,90.4 C162.976001,90.2026657 163.096,89.9813346 163.176,89.736 C163.256,89.4906654 163.296,89.2400013 163.296,88.984 Z M172.656,87.176 C172.538666,87.1439998 172.424001,87.1226667 172.312,87.112 C172.199999,87.1013333 172.090667,87.096 171.984,87.096 C171.631998,87.096 171.336001,87.1599994 171.096,87.288 C170.855999,87.4160006 170.664001,87.5706658 170.52,87.752 C170.375999,87.9333342 170.272,88.1306656 170.208,88.344 C170.144,88.5573344 170.112,88.7439992 170.112,88.904 L170.112,93 L167.488,93 L167.488,85.032 L170.016,85.032 L170.016,86.184 L170.048,86.184 C170.250668,85.7786646 170.538665,85.4480013 170.912,85.192 C171.285335,84.9359987 171.717331,84.808 172.208,84.808 C172.314667,84.808 172.418666,84.8133333 172.52,84.824 C172.621334,84.8346667 172.704,84.8506666 172.768,84.872 L172.656,87.176 Z M179.568,93 L179.568,91.96 L179.536,91.96 C179.279999,92.3653354 178.914669,92.6773322 178.44,92.896 C177.965331,93.1146678 177.461336,93.224 176.928,93.224 C176.330664,93.224 175.797336,93.1066678 175.328,92.872 C174.858664,92.6373322 174.461335,92.3253353 174.136,91.936 C173.810665,91.5466647 173.562668,91.0960026 173.392,90.584 C173.221332,90.0719974 173.136,89.5386694 173.136,88.984 C173.136,88.4293306 173.223999,87.8986692 173.4,87.392 C173.576001,86.8853308 173.826665,86.4400019 174.152,86.056 C174.477335,85.6719981 174.871998,85.3680011 175.336,85.144 C175.800002,84.9199989 176.319997,84.808 176.896,84.808 C177.48267,84.808 177.978665,84.9199989 178.384,85.144 C178.789335,85.3680011 179.103999,85.613332 179.328,85.88 L179.36,85.88 L179.36,80.904 L181.984,80.904 L181.984,93 L179.568,93 Z M179.472,89 C179.472,88.7439987 179.426667,88.4933346 179.336,88.248 C179.245333,88.0026654 179.117334,87.784001 178.952,87.592 C178.786666,87.399999 178.586668,87.2453339 178.352,87.128 C178.117332,87.0106661 177.850668,86.952 177.552,86.952 C177.242665,86.952 176.970668,87.0106661 176.736,87.128 C176.501332,87.2453339 176.304001,87.3973324 176.144,87.584 C175.983999,87.7706676 175.864,87.9866654 175.784,88.232 C175.704,88.4773346 175.664,88.7279987 175.664,88.984 C175.664,89.2400013 175.704,89.4933321 175.784,89.744 C175.864,89.9946679 175.983999,90.215999 176.144,90.408 C176.304001,90.600001 176.501332,90.7546661 176.736,90.872 C176.970668,90.9893339 177.242665,91.048 177.552,91.048 C177.850668,91.048 178.117332,90.9893339 178.352,90.872 C178.586668,90.7546661 178.786666,90.600001 178.952,90.408 C179.117334,90.215999 179.245333,89.9973346 179.336,89.752 C179.426667,89.5066654 179.472,89.2560013 179.472,89 Z M192.8,85.16 C192.8,85.8213366 192.677335,86.3786644 192.432,86.832 C192.186665,87.2853356 191.856002,87.6506653 191.44,87.928 C191.023998,88.2053347 190.544003,88.4079994 190,88.536 C189.455997,88.6640006 188.89067,88.728 188.304,88.728 L186.944,88.728 L186.944,93 L184.208,93 L184.208,81.672 L188.368,81.672 C188.98667,81.672 189.565331,81.7333327 190.104,81.856 C190.642669,81.9786673 191.111998,82.1759986 191.512,82.448 C191.912002,82.7200014 192.226666,83.0773311 192.456,83.52 C192.685334,83.9626689 192.8,84.5093301 192.8,85.16 Z M190.064,85.176 C190.064,84.909332 190.010667,84.6906675 189.904,84.52 C189.797333,84.3493325 189.653334,84.2160005 189.472,84.12 C189.290666,84.0239995 189.085334,83.9600002 188.856,83.928 C188.626666,83.8959998 188.389335,83.88 188.144,83.88 L186.944,83.88 L186.944,86.552 L188.096,86.552 C188.352001,86.552 188.597332,86.5306669 188.832,86.488 C189.066668,86.4453331 189.277332,86.3706672 189.464,86.264 C189.650668,86.1573328 189.797333,86.0160009 189.904,85.84 C190.010667,85.6639991 190.064,85.442668 190.064,85.176 Z M198.784,87.176 C198.666666,87.1439998 198.552001,87.1226667 198.44,87.112 C198.327999,87.1013333 198.218667,87.096 198.112,87.096 C197.759998,87.096 197.464001,87.1599994 197.224,87.288 C196.983999,87.4160006 196.792001,87.5706658 196.648,87.752 C196.503999,87.9333342 196.4,88.1306656 196.336,88.344 C196.272,88.5573344 196.24,88.7439992 196.24,88.904 L196.24,93 L193.616,93 L193.616,85.032 L196.144,85.032 L196.144,86.184 L196.176,86.184 C196.378668,85.7786646 196.666665,85.4480013 197.04,85.192 C197.413335,84.9359987 197.845331,84.808 198.336,84.808 C198.442667,84.808 198.546666,84.8133333 198.648,84.824 C198.749334,84.8346667 198.832,84.8506666 198.896,84.872 L198.784,87.176 Z M205.152,88.104 C205.152,87.6879979 205.021335,87.3306682 204.76,87.032 C204.498665,86.7333318 204.106669,86.584 203.584,86.584 C203.327999,86.584 203.093334,86.6239996 202.88,86.704 C202.666666,86.7840004 202.480001,86.8933326 202.32,87.032 C202.159999,87.1706674 202.032,87.3333324 201.936,87.52 C201.84,87.7066676 201.786667,87.9013323 201.776,88.104 L205.152,88.104 Z M207.568,89.112 L207.568,89.432 C207.568,89.5386672 207.562667,89.6399995 207.552,89.736 L201.776,89.736 C201.797333,89.9600011 201.863999,90.1626658 201.976,90.344 C202.088001,90.5253342 202.231999,90.682666 202.408,90.816 C202.584001,90.949334 202.781332,91.053333 203,91.128 C203.218668,91.202667 203.445332,91.24 203.68,91.24 C204.096002,91.24 204.447999,91.1626674 204.736,91.008 C205.024001,90.8533326 205.258666,90.6533346 205.44,90.408 L207.264,91.56 C206.890665,92.1040027 206.397336,92.5226652 205.784,92.816 C205.170664,93.1093348 204.458671,93.256 203.648,93.256 C203.050664,93.256 202.485336,93.1626676 201.952,92.976 C201.418664,92.7893324 200.952002,92.5173351 200.552,92.16 C200.151998,91.8026649 199.837334,91.3626693 199.608,90.84 C199.378666,90.3173307 199.264,89.7200034 199.264,89.048 C199.264,88.3973301 199.375999,87.8080026 199.6,87.28 C199.824001,86.7519974 200.127998,86.3040018 200.512,85.936 C200.896002,85.5679982 201.349331,85.2826677 201.872,85.08 C202.394669,84.8773323 202.959997,84.776 203.568,84.776 C204.15467,84.776 204.693331,84.8746657 205.184,85.072 C205.674669,85.2693343 206.095998,85.5546648 206.448,85.928 C206.800002,86.3013352 207.074666,86.754664 207.272,87.288 C207.469334,87.821336 207.568,88.4293299 207.568,89.112 Z M213.888,87.384 C213.674666,87.1813323 213.424001,87.0106674 213.136,86.872 C212.847999,86.7333326 212.544002,86.664 212.224,86.664 C211.978665,86.664 211.752001,86.7119995 211.544,86.808 C211.335999,86.9040005 211.232,87.0693322 211.232,87.304 C211.232,87.5280011 211.346666,87.6879995 211.576,87.784 C211.805334,87.8800005 212.175997,87.9866661 212.688,88.104 C212.986668,88.1680003 213.287998,88.2586661 213.592,88.376 C213.896002,88.4933339 214.170665,88.647999 214.416,88.84 C214.661335,89.032001 214.858666,89.2666653 215.008,89.544 C215.157334,89.8213347 215.232,90.1519981 215.232,90.536 C215.232,91.0373358 215.130668,91.4613316 214.928,91.808 C214.725332,92.1546684 214.461335,92.4346656 214.136,92.648 C213.810665,92.8613344 213.445335,93.0159995 213.04,93.112 C212.634665,93.2080005 212.229335,93.256 211.824,93.256 C211.17333,93.256 210.536003,93.152001 209.912,92.944 C209.287997,92.735999 208.768002,92.4293354 208.352,92.024 L209.824,90.472 C210.058668,90.7280013 210.346665,90.9413325 210.688,91.112 C211.029335,91.2826675 211.391998,91.368 211.776,91.368 C211.989334,91.368 212.199999,91.3173338 212.408,91.216 C212.616001,91.1146662 212.72,90.9360013 212.72,90.68 C212.72,90.4346654 212.592001,90.2533339 212.336,90.136 C212.079999,90.0186661 211.680003,89.8960006 211.136,89.768 C210.858665,89.7039997 210.581335,89.6186672 210.304,89.512 C210.026665,89.4053328 209.778668,89.2613342 209.56,89.08 C209.341332,88.8986658 209.162667,88.674668 209.024,88.408 C208.885333,88.141332 208.816,87.8213352 208.816,87.448 C208.816,86.9679976 208.917332,86.5600017 209.12,86.224 C209.322668,85.8879983 209.583998,85.6133344 209.904,85.4 C210.224002,85.1866656 210.578665,85.0293338 210.968,84.928 C211.357335,84.8266662 211.743998,84.776 212.128,84.776 C212.725336,84.776 213.30933,84.8693324 213.88,85.056 C214.45067,85.2426676 214.933331,85.5226648 215.328,85.896 L213.888,87.384 Z M221.44,87.384 C221.226666,87.1813323 220.976001,87.0106674 220.688,86.872 C220.399999,86.7333326 220.096002,86.664 219.776,86.664 C219.530665,86.664 219.304001,86.7119995 219.096,86.808 C218.887999,86.9040005 218.784,87.0693322 218.784,87.304 C218.784,87.5280011 218.898666,87.6879995 219.128,87.784 C219.357334,87.8800005 219.727997,87.9866661 220.24,88.104 C220.538668,88.1680003 220.839998,88.2586661 221.144,88.376 C221.448002,88.4933339 221.722665,88.647999 221.968,88.84 C222.213335,89.032001 222.410666,89.2666653 222.56,89.544 C222.709334,89.8213347 222.784,90.1519981 222.784,90.536 C222.784,91.0373358 222.682668,91.4613316 222.48,91.808 C222.277332,92.1546684 222.013335,92.4346656 221.688,92.648 C221.362665,92.8613344 220.997335,93.0159995 220.592,93.112 C220.186665,93.2080005 219.781335,93.256 219.376,93.256 C218.72533,93.256 218.088003,93.152001 217.464,92.944 C216.839997,92.735999 216.320002,92.4293354 215.904,92.024 L217.376,90.472 C217.610668,90.7280013 217.898665,90.9413325 218.24,91.112 C218.581335,91.2826675 218.943998,91.368 219.328,91.368 C219.541334,91.368 219.751999,91.3173338 219.96,91.216 C220.168001,91.1146662 220.272,90.9360013 220.272,90.68 C220.272,90.4346654 220.144001,90.2533339 219.888,90.136 C219.631999,90.0186661 219.232003,89.8960006 218.688,89.768 C218.410665,89.7039997 218.133335,89.6186672 217.856,89.512 C217.578665,89.4053328 217.330668,89.2613342 217.112,89.08 C216.893332,88.8986658 216.714667,88.674668 216.576,88.408 C216.437333,88.141332 216.368,87.8213352 216.368,87.448 C216.368,86.9679976 216.469332,86.5600017 216.672,86.224 C216.874668,85.8879983 217.135998,85.6133344 217.456,85.4 C217.776002,85.1866656 218.130665,85.0293338 218.52,84.928 C218.909335,84.8266662 219.295998,84.776 219.68,84.776 C220.277336,84.776 220.86133,84.8693324 221.432,85.056 C222.00267,85.2426676 222.485331,85.5226648 222.88,85.896 L221.44,87.384 Z M232.912,84.008 L232.912,93 L230.176,93 L230.176,84.008 L226.976,84.008 L226.976,81.672 L236.112,81.672 L236.112,84.008 L232.912,84.008 Z M242.176,93 L242.176,88.68 C242.176,88.4559989 242.16,88.2426677 242.128,88.04 C242.096,87.8373323 242.034667,87.6586674 241.944,87.504 C241.853333,87.3493326 241.733334,87.2266671 241.584,87.136 C241.434666,87.0453329 241.242668,87 241.008,87 C240.549331,87 240.197335,87.162665 239.952,87.488 C239.706665,87.813335 239.584,88.2159976 239.584,88.696 L239.584,93 L236.96,93 L236.96,80.904 L239.584,80.904 L239.584,86.04 L239.616,86.04 C239.797334,85.7199984 240.085331,85.4346679 240.48,85.184 C240.874669,84.9333321 241.349331,84.808 241.904,84.808 C242.448003,84.808 242.903998,84.903999 243.272,85.096 C243.640002,85.288001 243.938666,85.5359985 244.168,85.84 C244.397334,86.1440015 244.562666,86.4933314 244.664,86.888 C244.765334,87.2826686 244.816,87.6773314 244.816,88.072 L244.816,93 L242.176,93 Z M252.288,88.104 C252.288,87.6879979 252.157335,87.3306682 251.896,87.032 C251.634665,86.7333318 251.242669,86.584 250.72,86.584 C250.463999,86.584 250.229334,86.6239996 250.016,86.704 C249.802666,86.7840004 249.616001,86.8933326 249.456,87.032 C249.295999,87.1706674 249.168,87.3333324 249.072,87.52 C248.976,87.7066676 248.922667,87.9013323 248.912,88.104 L252.288,88.104 Z M254.704,89.112 L254.704,89.432 C254.704,89.5386672 254.698667,89.6399995 254.688,89.736 L248.912,89.736 C248.933333,89.9600011 248.999999,90.1626658 249.112,90.344 C249.224001,90.5253342 249.367999,90.682666 249.544,90.816 C249.720001,90.949334 249.917332,91.053333 250.136,91.128 C250.354668,91.202667 250.581332,91.24 250.816,91.24 C251.232002,91.24 251.583999,91.1626674 251.872,91.008 C252.160001,90.8533326 252.394666,90.6533346 252.576,90.408 L254.4,91.56 C254.026665,92.1040027 253.533336,92.5226652 252.92,92.816 C252.306664,93.1093348 251.594671,93.256 250.784,93.256 C250.186664,93.256 249.621336,93.1626676 249.088,92.976 C248.554664,92.7893324 248.088002,92.5173351 247.688,92.16 C247.287998,91.8026649 246.973334,91.3626693 246.744,90.84 C246.514666,90.3173307 246.4,89.7200034 246.4,89.048 C246.4,88.3973301 246.511999,87.8080026 246.736,87.28 C246.960001,86.7519974 247.263998,86.3040018 247.648,85.936 C248.032002,85.5679982 248.485331,85.2826677 249.008,85.08 C249.530669,84.8773323 250.095997,84.776 250.704,84.776 C251.29067,84.776 251.829331,84.8746657 252.32,85.072 C252.810669,85.2693343 253.231998,85.5546648 253.584,85.928 C253.936002,86.3013352 254.210666,86.754664 254.408,87.288 C254.605334,87.821336 254.704,88.4293299 254.704,89.112 Z M266.512,93 L266.512,88.648 C266.512,88.4239989 266.496,88.208001 266.464,88 C266.432,87.791999 266.373334,87.6133341 266.288,87.464 C266.202666,87.3146659 266.088001,87.1946671 265.944,87.104 C265.799999,87.0133329 265.610668,86.968 265.376,86.968 C265.151999,86.968 264.957334,87.0159995 264.792,87.112 C264.626666,87.2080005 264.488001,87.3359992 264.376,87.496 C264.263999,87.6560008 264.181334,87.839999 264.128,88.048 C264.074666,88.256001 264.048,88.4719989 264.048,88.696 L264.048,93 L261.424,93 L261.424,88.456 C261.424,87.997331 261.333334,87.634668 261.152,87.368 C260.970666,87.101332 260.682669,86.968 260.288,86.968 C259.871998,86.968 259.549334,87.1333317 259.32,87.464 C259.090666,87.7946683 258.976,88.1999976 258.976,88.68 L258.976,93 L256.336,93 L256.336,85.032 L258.88,85.032 L258.88,86.136 L258.912,86.136 C259.008,85.9653325 259.127999,85.8000008 259.272,85.64 C259.416001,85.4799992 259.589332,85.3386673 259.792,85.216 C259.994668,85.0933327 260.221332,84.994667 260.472,84.92 C260.722668,84.845333 260.997332,84.808 261.296,84.808 C261.872003,84.808 262.359998,84.9253322 262.76,85.16 C263.160002,85.3946678 263.471999,85.7306645 263.696,86.168 C263.962668,85.7519979 264.303998,85.4213346 264.72,85.176 C265.136002,84.9306654 265.642664,84.808 266.24,84.808 C266.784003,84.808 267.239998,84.9066657 267.608,85.104 C267.976002,85.3013343 268.271999,85.5573318 268.496,85.872 C268.720001,86.1866682 268.882666,86.5386647 268.984,86.928 C269.085334,87.3173353 269.136,87.6986648 269.136,88.072 L269.136,93 L266.512,93 Z M276.608,88.104 C276.608,87.6879979 276.477335,87.3306682 276.216,87.032 C275.954665,86.7333318 275.562669,86.584 275.04,86.584 C274.783999,86.584 274.549334,86.6239996 274.336,86.704 C274.122666,86.7840004 273.936001,86.8933326 273.776,87.032 C273.615999,87.1706674 273.488,87.3333324 273.392,87.52 C273.296,87.7066676 273.242667,87.9013323 273.232,88.104 L276.608,88.104 Z M279.024,89.112 L279.024,89.432 C279.024,89.5386672 279.018667,89.6399995 279.008,89.736 L273.232,89.736 C273.253333,89.9600011 273.319999,90.1626658 273.432,90.344 C273.544001,90.5253342 273.687999,90.682666 273.864,90.816 C274.040001,90.949334 274.237332,91.053333 274.456,91.128 C274.674668,91.202667 274.901332,91.24 275.136,91.24 C275.552002,91.24 275.903999,91.1626674 276.192,91.008 C276.480001,90.8533326 276.714666,90.6533346 276.896,90.408 L278.72,91.56 C278.346665,92.1040027 277.853336,92.5226652 277.24,92.816 C276.626664,93.1093348 275.914671,93.256 275.104,93.256 C274.506664,93.256 273.941336,93.1626676 273.408,92.976 C272.874664,92.7893324 272.408002,92.5173351 272.008,92.16 C271.607998,91.8026649 271.293334,91.3626693 271.064,90.84 C270.834666,90.3173307 270.72,89.7200034 270.72,89.048 C270.72,88.3973301 270.831999,87.8080026 271.056,87.28 C271.280001,86.7519974 271.583998,86.3040018 271.968,85.936 C272.352002,85.5679982 272.805331,85.2826677 273.328,85.08 C273.850669,84.8773323 274.415997,84.776 275.024,84.776 C275.61067,84.776 276.149331,84.8746657 276.64,85.072 C277.130669,85.2693343 277.551998,85.5546648 277.904,85.928 C278.256002,86.3013352 278.530666,86.754664 278.728,87.288 C278.925334,87.821336 279.024,88.4293299 279.024,89.112 Z" id="Blank-Responsive-Wor" fill="#D8D8D8"></path>
        </g>
    </g>
</svg>