<?xml version="1.0" encoding="UTF-8"?>
<svg width="77px" height="76px" viewBox="0 0 77 76" version="1.1" xmlns="http://www.w3.org/2000/svg" xmlns:xlink="http://www.w3.org/1999/xlink">
    <!-- Generator: Sketch 41.2 (35397) - http://www.bohemiancoding.com/sketch -->
    <title>Pinterest</title>
    <desc>Created with Sketch.</desc>
    <defs></defs>
    <g id="Page-1" stroke="none" stroke-width="1" fill="none" fill-rule="evenodd">
        <g id="flatIconSet-" transform="translate(-282.000000, -94.000000)">
            <g id="Pinterest" transform="translate(282.000000, 94.000000)">
                <polygon id="Fill-42" fill="#FFFFFF" points="0.829 75.452 76.19 75.452 76.19 0.091 0.829 0.091"></polygon>
                <path d="M38.509,10.514 C23.457,10.514 11.251,22.716 11.251,37.772 C11.251,48.933 17.962,58.522 27.568,62.737 C27.491,60.831 27.554,58.547 28.041,56.479 C28.567,54.263 31.549,41.623 31.549,41.623 C31.549,41.623 30.677,39.885 30.677,37.313 C30.677,33.276 33.022,30.258 35.937,30.258 C38.415,30.258 39.612,32.119 39.612,34.348 C39.612,36.84 38.022,40.568 37.206,44.021 C36.522,46.912 38.657,49.27 41.504,49.27 C46.67,49.27 50.147,42.64 50.147,34.779 C50.147,28.807 46.125,24.336 38.807,24.336 C30.54,24.336 25.388,30.5 25.388,37.386 C25.388,39.763 26.089,41.438 27.186,42.734 C27.691,43.33 27.761,43.568 27.575,44.252 C27.449,44.756 27.148,45.961 27.022,46.439 C26.839,47.133 26.282,47.377 25.658,47.122 C21.849,45.569 20.076,41.398 20.076,36.71 C20.076,28.968 26.604,19.682 39.558,19.682 C49.962,19.682 56.815,27.212 56.815,35.297 C56.815,45.99 50.866,53.977 42.104,53.977 C39.16,53.977 36.393,52.385 35.447,50.581 C35.447,50.581 33.862,56.861 33.53,58.074 C32.951,60.172 31.819,62.275 30.785,63.913 C33.235,64.634 35.825,65.029 38.509,65.029 C53.561,65.029 65.765,52.827 65.765,37.772 C65.765,22.716 53.561,10.514 38.509,10.514" id="Fill-43" fill="#000000"></path>
            </g>
        </g>
    </g>
</svg>