<?xml version="1.0" encoding="UTF-8"?>
<svg width="76px" height="76px" viewBox="0 0 76 76" version="1.1" xmlns="http://www.w3.org/2000/svg" xmlns:xlink="http://www.w3.org/1999/xlink">
    <!-- Generator: Sketch 41.2 (35397) - http://www.bohemiancoding.com/sketch -->
    <title>Youtube</title>
    <desc>Created with Sketch.</desc>
    <defs></defs>
    <g id="Page-1" stroke="none" stroke-width="1" fill="none" fill-rule="evenodd">
        <g id="flatIconSet-" transform="translate(-1.000000, 0.000000)">
            <g id="Youtube" transform="translate(1.000000, 0.000000)">
                <polygon id="Fill-1" fill="#FFFFFF" points="0.36 75.852 75.721 75.852 75.721 0.491 0.36 0.491"></polygon>
                <path d="M32.793,7.854 L29.36,7.854 L27.045,16.755 L24.636,7.854 L21.063,7.854 C21.778,9.953 22.524,12.066 23.239,14.169 C24.327,17.33 25.007,19.712 25.314,21.34 L25.314,30.521 L28.709,30.521 L28.709,21.34 L32.793,7.854 Z M41.866,25.052 L41.866,19.134 C41.866,17.33 41.556,16.011 40.914,15.155 C40.066,14.002 38.876,13.424 37.343,13.424 C35.819,13.424 34.625,14.002 33.779,15.155 C33.127,16.011 32.82,17.33 32.82,19.134 L32.82,25.052 C32.82,26.848 33.127,28.178 33.779,29.026 C34.625,30.177 35.819,30.755 37.343,30.755 C38.876,30.755 40.066,30.177 40.914,29.026 C41.556,28.178 41.866,26.848 41.866,25.052 Z M38.803,25.628 C38.803,27.191 38.33,27.973 37.343,27.973 C36.355,27.973 35.881,27.191 35.881,25.628 L35.881,18.521 C35.881,16.958 36.355,16.18 37.343,16.18 C38.33,16.18 38.803,16.958 38.803,18.521 L38.803,25.628 Z M53.185,30.521 L53.185,13.629 L50.124,13.629 L50.124,26.54 C49.444,27.499 48.801,27.973 48.19,27.973 C47.778,27.973 47.539,27.731 47.473,27.256 C47.435,27.157 47.435,26.783 47.435,26.065 L47.435,13.629 L44.383,13.629 L44.383,26.986 C44.383,28.178 44.487,28.987 44.656,29.498 C44.96,30.354 45.64,30.755 46.627,30.755 C47.743,30.755 48.904,30.076 50.124,28.678 L50.124,30.521 L53.185,30.521 L53.185,30.521 Z" id="Fill-2" fill="#000000"></path>
                <path d="M63.101,51.023 C63.101,54.93 63.098,59.076 62.222,62.871 C61.61,65.535 59.43,67.5 56.805,67.795 C50.59,68.489 44.298,68.493 38.037,68.489 C31.774,68.493 25.484,68.489 19.269,67.795 C16.644,67.5 14.464,65.535 13.853,62.871 C12.98,59.076 12.98,54.93 12.98,51.023 C12.98,47.111 12.989,42.973 13.863,39.173 C14.475,36.51 16.654,34.544 19.279,34.251 C25.495,33.555 31.785,33.554 38.047,33.555 C44.308,33.554 50.6,33.555 56.815,34.251 C59.441,34.544 61.621,36.51 62.232,39.173 C63.104,42.973 63.101,47.111 63.101,51.023" id="Fill-3" fill="#000000"></path>
                <path d="M27.276,42.591 L27.276,39.431 L16.714,39.431 L16.714,42.591 L20.278,42.591 L20.278,61.866 L23.646,61.866 L23.646,42.591 L27.276,42.591 Z M33.395,61.866 L33.395,60.044 C32.193,61.424 31.049,62.097 29.935,62.097 C28.958,62.097 28.286,61.701 27.984,60.853 C27.817,60.345 27.716,59.549 27.716,58.368 L27.716,45.149 L30.744,45.149 L30.744,57.457 C30.744,58.165 30.744,58.537 30.772,58.635 C30.846,59.104 31.075,59.342 31.48,59.342 C32.088,59.342 32.726,58.873 33.395,57.926 L33.395,45.149 L36.428,45.149 L36.428,61.866 L33.395,61.866 Z M44.906,57.089 C44.906,58.599 44.461,59.342 43.588,59.342 C43.09,59.342 42.584,59.104 42.078,58.599 L42.078,48.409 C42.584,47.911 43.09,47.672 43.588,47.672 C44.461,47.672 44.906,48.447 44.906,49.954 L44.906,57.089 Z M47.934,56.851 L47.934,50.192 C47.934,48.612 47.83,47.504 47.628,46.831 C47.224,45.58 46.415,44.946 45.207,44.946 C44.095,44.946 43.057,45.556 42.078,46.758 L42.078,39.431 L39.05,39.431 L39.05,61.866 L42.078,61.866 L42.078,60.247 C43.09,61.498 44.129,62.097 45.207,62.097 C46.415,62.097 47.224,61.462 47.628,60.218 C47.83,59.511 47.934,58.396 47.934,56.851 Z M56.337,51.538 L53.31,51.538 L53.31,49.993 C53.31,48.447 53.816,47.672 54.829,47.672 C55.83,47.672 56.337,48.447 56.337,49.993 L56.337,51.538 Z M59.367,56.518 L59.367,56.077 L56.274,56.077 C56.274,57.292 56.238,57.961 56.21,58.126 C56.036,58.936 55.6,59.342 54.855,59.342 C53.816,59.342 53.31,58.571 53.31,57.023 L53.31,54.061 L59.367,54.061 L59.367,50.599 C59.367,48.811 59.062,47.504 58.428,46.66 C57.58,45.514 56.374,44.946 54.855,44.946 C53.31,44.946 52.101,45.514 51.228,46.66 C50.583,47.504 50.292,48.811 50.292,50.599 L50.292,56.455 C50.292,58.228 50.622,59.549 51.265,60.383 C52.139,61.526 53.344,62.097 54.932,62.097 C56.513,62.097 57.755,61.498 58.595,60.285 C58.96,59.749 59.198,59.139 59.3,58.47 C59.329,58.165 59.367,57.492 59.367,56.518 L59.367,56.518 Z" id="Fill-4" fill="#FFFFFF"></path>
            </g>
        </g>
    </g>
</svg>